<svg xmlns="http://www.w3.org/2000/svg" width="24" height="24" viewBox="0 0 24 24" fill="none">
  <defs>
    <linearGradient id="g" x1="0" y1="0" x2="1" y2="1">
      <stop offset="0" stop-color="#0a84ff"/>
      <stop offset="1" stop-color="#5e5ce6"/>
    </linearGradient>
  </defs>
  <circle cx="12" cy="12" r="11" fill="url(#g)"/>
  <path d="M14.5 6.2c-.9.1-1.7.6-2.2 1.3-.5.7-.8 1.5-.7 2.4.9.1 1.7-.3 2.3-1 .6-.7 1-1.6.6-2.7zM17.7 12.9c-.1-1.3.6-2.3 1.9-3-.8-1.1-2-1.7-3.6-1.8-1.6-.1-2.9.5-3.8.5s-2-.5-3.3-.5c-1.3 0-2.8.8-3.6 2.1-1.6 2.6-.4 6.4 1.1 8.5.8 1.1 1.7 2.3 2.9 2.3 1.2 0 1.6-.7 3-0.7 1.4 0 1.7.7 3 0.7 1.2 0 2-.9 2.8-2 .6-.8 1.1-1.7 1.4-2.7-1.6-.7-2.8-2-2.8-3.4z" fill="#fff" opacity="0.9"/>
</svg>